{"id": "T0", "fps": {"num": 24, "den": 1}, "width": 1280, "height": 720, "sample_rate": 44100, "channels": 2, "channel_layout": 3, "settings": {}, "clips": [{"alpha": {"Points": [{"co": {"X": 1.0, "Y": 1.0}, "interpolation": 2}]}, "anchor": 0, "channel_filter": {"Points": [{"co": {"X": 1.0, "Y": -1.0}, "interpolation": 2}]}, "channel_mapping": {"Points": [{"co": {"X": 1.0, "Y": -1.0}, "interpolation": 2}]}, "crop_height": {"Points": [{"co": {"X": 1.0, "Y": -1.0}, "interpolation": 2}]}, "crop_width": {"Points": [{"co": {"X": 1.0, "Y": -1.0}, "interpolation": 2}]}, "crop_x": {"Points": [{"co": {"X": 1.0, "Y": 0.0}, "interpolation": 2}]}, "crop_y": {"Points": [{"co": {"X": 1.0, "Y": 0.0}, "interpolation": 2}]}, "display": 0, "duration": 184.0, "effects": [], "end": 184, "gravity": 4, "has_audio": {"Points": [{"co": {"X": 1.0, "Y": -1.0}, "interpolation": 2}]}, "has_video": {"Points": [{"co": {"X": 1.0, "Y": -1.0}, "interpolation": 2}]}, "id": "A98YK7598J", "layer": 4, "location_x": {"Points": [{"co": {"X": 1.0, "Y": 0.0}, "interpolation": 2}]}, "location_y": {"Points": [{"co": {"X": 1.0, "Y": 0.0}, "interpolation": 2}]}, "perspective_c1_x": {"Points": [{"co": {"X": 1.0, "Y": -1.0}, "interpolation": 2}]}, "perspective_c1_y": {"Points": [{"co": {"X": 1.0, "Y": -1.0}, "interpolation": 2}]}, "perspective_c2_x": {"Points": [{"co": {"X": 1.0, "Y": -1.0}, "interpolation": 2}]}, "perspective_c2_y": {"Points": [{"co": {"X": 1.0, "Y": -1.0}, "interpolation": 2}]}, "perspective_c3_x": {"Points": [{"co": {"X": 1.0, "Y": -1.0}, "interpolation": 2}]}, "perspective_c3_y": {"Points": [{"co": {"X": 1.0, "Y": -1.0}, "interpolation": 2}]}, "perspective_c4_x": {"Points": [{"co": {"X": 1.0, "Y": -1.0}, "interpolation": 2}]}, "perspective_c4_y": {"Points": [{"co": {"X": 1.0, "Y": -1.0}, "interpolation": 2}]}, "position": 0, "reader": {"acodec": "", "audio_bit_rate": 0, "audio_stream_index": -1, "audio_timebase": {"den": 1, "num": 1}, "channel_layout": 4, "channels": 0, "display_ratio": {"den": 384, "num": 683}, "duration": 184.0, "file_size": "25255664", "fps": {"den": 1, "num": 24}, "has_audio": false, "has_single_image": false, "has_video": true, "height": 768, "interlaced_frame": false, "path": "action.mkv", "pixel_format": 0, "pixel_ratio": {"den": 1, "num": 1}, "sample_rate": 0, "top_field_first": true, "type": "FFmpegReader", "vcodec": "vp8", "video_bit_rate": 1093715, "video_length": "4416", "video_stream_index": 0, "video_timebase": {"den": 24, "num": 1}, "width": 1366}, "rotation": {"Points": [{"co": {"X": 1.0, "Y": 0.0}, "interpolation": 2}]}, "scale": 1, "scale_x": {"Points": [{"co": {"X": 1.0, "Y": 1.0}, "interpolation": 2}]}, "scale_y": {"Points": [{"co": {"X": 1.0, "Y": 1.0}, "interpolation": 2}]}, "shear_x": {"Points": [{"co": {"X": 1.0, "Y": 0.0}, "interpolation": 2}]}, "shear_y": {"Points": [{"co": {"X": 1.0, "Y": 0.0}, "interpolation": 2}]}, "start": 0, "time": {"Points": [{"co": {"X": 1.0, "Y": 1.0}, "interpolation": 2}]}, "volume": {"Points": [{"co": {"X": 1.0, "Y": 1.0}, "interpolation": 2}]}, "wave_color": {"alpha": {"Points": [{"co": {"X": 1.0, "Y": 255.0}, "handle_left": {"X": 0.5, "Y": 1.0}, "handle_right": {"X": 0.5, "Y": 0.0}, "handle_type": 0, "interpolation": 0}]}, "blue": {"Points": [{"co": {"X": 1.0, "Y": 255.0}, "handle_left": {"X": 0.5, "Y": 1.0}, "handle_right": {"X": 0.5, "Y": 0.0}, "handle_type": 0, "interpolation": 0}]}, "green": {"Points": [{"co": {"X": 1.0, "Y": 123.0}, "handle_left": {"X": 0.5, "Y": 1.0}, "handle_right": {"X": 0.5, "Y": 0.0}, "handle_type": 0, "interpolation": 0}]}, "red": {"Points": [{"co": {"X": 1.0, "Y": 0.0}, "handle_left": {"X": 0.5, "Y": 1.0}, "handle_right": {"X": 0.5, "Y": 0.0}, "handle_type": 0, "interpolation": 0}]}}, "waveform": false, "file_id": "GTYO9OMU3J", "title": "action.mkv", "image": "../../.openshot_qt/thumbnail/GTYO9OMU3J.png"}, {"alpha": {"Points": [{"co": {"X": 1.0, "Y": 1.0}, "interpolation": 2}]}, "anchor": 0, "channel_filter": {"Points": [{"co": {"X": 1.0, "Y": -1.0}, "interpolation": 2}]}, "channel_mapping": {"Points": [{"co": {"X": 1.0, "Y": -1.0}, "interpolation": 2}]}, "crop_height": {"Points": [{"co": {"X": 1.0, "Y": -1.0}, "interpolation": 2}]}, "crop_width": {"Points": [{"co": {"X": 1.0, "Y": -1.0}, "interpolation": 2}]}, "crop_x": {"Points": [{"co": {"X": 1.0, "Y": 0.0}, "interpolation": 2}]}, "crop_y": {"Points": [{"co": {"X": 1.0, "Y": 0.0}, "interpolation": 2}]}, "display": 0, "duration": 86400.0, "effects": [], "end": 10, "gravity": 4, "has_audio": {"Points": [{"co": {"X": 1.0, "Y": -1.0}, "interpolation": 2}]}, "has_video": {"Points": [{"co": {"X": 1.0, "Y": -1.0}, "interpolation": 2}]}, "id": "TXX1P4JP2F", "layer": 4, "location_x": {"Points": [{"co": {"X": 1.0, "Y": 0.0}, "interpolation": 2}]}, "location_y": {"Points": [{"co": {"X": 1.0, "Y": 0.0}, "interpolation": 2}]}, "perspective_c1_x": {"Points": [{"co": {"X": 1.0, "Y": -1.0}, "interpolation": 2}]}, "perspective_c1_y": {"Points": [{"co": {"X": 1.0, "Y": -1.0}, "interpolation": 2}]}, "perspective_c2_x": {"Points": [{"co": {"X": 1.0, "Y": -1.0}, "interpolation": 2}]}, "perspective_c2_y": {"Points": [{"co": {"X": 1.0, "Y": -1.0}, "interpolation": 2}]}, "perspective_c3_x": {"Points": [{"co": {"X": 1.0, "Y": -1.0}, "interpolation": 2}]}, "perspective_c3_y": {"Points": [{"co": {"X": 1.0, "Y": -1.0}, "interpolation": 2}]}, "perspective_c4_x": {"Points": [{"co": {"X": 1.0, "Y": -1.0}, "interpolation": 2}]}, "perspective_c4_y": {"Points": [{"co": {"X": 1.0, "Y": -1.0}, "interpolation": 2}]}, "position": 184, "reader": {"acodec": "", "audio_bit_rate": 0, "audio_stream_index": -1, "audio_timebase": {"den": 1, "num": 1}, "channel_layout": 4, "channels": 0, "display_ratio": {"den": 18, "num": 167}, "duration": 86400.0, "file_size": "108216", "fps": {"den": 1, "num": 30}, "has_audio": false, "has_single_image": true, "has_video": true, "height": 54, "interlaced_frame": false, "path": "learning_code.png", "pixel_format": -1, "pixel_ratio": {"den": 1, "num": 1}, "sample_rate": 0, "top_field_first": true, "type": "QtImageReader", "vcodec": "", "video_bit_rate": 0, "video_length": "2592000", "video_stream_index": -1, "video_timebase": {"den": 30, "num": 1}, "width": 501}, "rotation": {"Points": [{"co": {"X": 1.0, "Y": 0.0}, "interpolation": 2}]}, "scale": 1, "scale_x": {"Points": [{"co": {"X": 1.0, "Y": 1.0}, "interpolation": 2}]}, "scale_y": {"Points": [{"co": {"X": 1.0, "Y": 1.0}, "interpolation": 2}]}, "shear_x": {"Points": [{"co": {"X": 1.0, "Y": 0.0}, "interpolation": 2}]}, "shear_y": {"Points": [{"co": {"X": 1.0, "Y": 0.0}, "interpolation": 2}]}, "start": 0, "time": {"Points": [{"co": {"X": 1.0, "Y": 1.0}, "interpolation": 2}]}, "volume": {"Points": [{"co": {"X": 1.0, "Y": 1.0}, "interpolation": 2}]}, "wave_color": {"alpha": {"Points": [{"co": {"X": 1.0, "Y": 255.0}, "handle_left": {"X": 0.5, "Y": 1.0}, "handle_right": {"X": 0.5, "Y": 0.0}, "handle_type": 0, "interpolation": 0}]}, "blue": {"Points": [{"co": {"X": 1.0, "Y": 255.0}, "handle_left": {"X": 0.5, "Y": 1.0}, "handle_right": {"X": 0.5, "Y": 0.0}, "handle_type": 0, "interpolation": 0}]}, "green": {"Points": [{"co": {"X": 1.0, "Y": 123.0}, "handle_left": {"X": 0.5, "Y": 1.0}, "handle_right": {"X": 0.5, "Y": 0.0}, "handle_type": 0, "interpolation": 0}]}, "red": {"Points": [{"co": {"X": 1.0, "Y": 0.0}, "handle_left": {"X": 0.5, "Y": 1.0}, "handle_right": {"X": 0.5, "Y": 0.0}, "handle_type": 0, "interpolation": 0}]}}, "waveform": false, "file_id": "B4YPNMAA9Q", "title": "learning_code.png", "image": "../../.openshot_qt/thumbnail/B4YPNMAA9Q.png"}], "effects": [], "export_path": "", "files": [{"acodec": "", "audio_bit_rate": 0, "audio_stream_index": -1, "audio_timebase": {"den": 1, "num": 1}, "channel_layout": 4, "channels": 0, "display_ratio": {"den": 384, "num": 683}, "duration": 184.0, "file_size": "25255664", "fps": {"den": 1, "num": 24}, "has_audio": false, "has_single_image": false, "has_video": true, "height": 768, "interlaced_frame": false, "path": "action.mkv", "pixel_format": 0, "pixel_ratio": {"den": 1, "num": 1}, "sample_rate": 0, "top_field_first": true, "type": "FFmpegReader", "vcodec": "vp8", "video_bit_rate": 1093715, "video_length": "4416", "video_stream_index": 0, "video_timebase": {"den": 24, "num": 1}, "width": 1366, "media_type": "video", "id": "GTYO9OMU3J"}, {"acodec": "", "audio_bit_rate": 0, "audio_stream_index": -1, "audio_timebase": {"den": 1, "num": 1}, "channel_layout": 4, "channels": 0, "display_ratio": {"den": 18, "num": 167}, "duration": 86400.0, "file_size": "108216", "fps": {"den": 1, "num": 30}, "has_audio": false, "has_single_image": true, "has_video": true, "height": 54, "interlaced_frame": false, "path": "learning_code.png", "pixel_format": -1, "pixel_ratio": {"den": 1, "num": 1}, "sample_rate": 0, "top_field_first": true, "type": "QtImageReader", "vcodec": "", "video_bit_rate": 0, "video_length": "2592000", "video_stream_index": -1, "video_timebase": {"den": 30, "num": 1}, "width": 501, "media_type": "image", "id": "B4YPNMAA9Q"}, {"acodec": "vorbis", "audio_bit_rate": 160000, "audio_stream_index": 0, "audio_timebase": {"den": 44100, "num": 1}, "channel_layout": 3, "channels": 2, "display_ratio": {"den": 1, "num": 1}, "duration": 20.09832191467285, "file_size": "408922", "fps": {"den": 1, "num": 24}, "has_audio": true, "has_single_image": false, "has_video": false, "height": 480, "interlaced_frame": false, "path": "action-1.ogg", "pixel_format": -1, "pixel_ratio": {"den": 1, "num": 1}, "sample_rate": 44100, "top_field_first": true, "type": "FFmpegReader", "vcodec": "", "video_bit_rate": 0, "video_length": "482", "video_stream_index": -1, "video_timebase": {"den": 24, "num": 1}, "width": 720, "media_type": "audio", "id": "YEYWBMCYYR"}, {"acodec": "vorbis", "audio_bit_rate": 160000, "audio_stream_index": 0, "audio_timebase": {"den": 44100, "num": 1}, "channel_layout": 3, "channels": 2, "display_ratio": {"den": 1, "num": 1}, "duration": 23.4013614654541, "file_size": "478345", "fps": {"den": 1, "num": 24}, "has_audio": true, "has_single_image": false, "has_video": false, "height": 480, "interlaced_frame": false, "path": "action-2.ogg", "pixel_format": -1, "pixel_ratio": {"den": 1, "num": 1}, "sample_rate": 44100, "top_field_first": true, "type": "FFmpegReader", "vcodec": "", "video_bit_rate": 0, "video_length": "561", "video_stream_index": -1, "video_timebase": {"den": 24, "num": 1}, "width": 720, "media_type": "audio", "id": "Y1330S0ITT"}, {"acodec": "vorbis", "audio_bit_rate": 160000, "audio_stream_index": 0, "audio_timebase": {"den": 44100, "num": 1}, "channel_layout": 3, "channels": 2, "display_ratio": {"den": 1, "num": 1}, "duration": 8.212607383728027, "file_size": "171540", "fps": {"den": 1, "num": 24}, "has_audio": true, "has_single_image": false, "has_video": false, "height": 480, "interlaced_frame": false, "path": "action-3.ogg", "pixel_format": -1, "pixel_ratio": {"den": 1, "num": 1}, "sample_rate": 44100, "top_field_first": true, "type": "FFmpegReader", "vcodec": "", "video_bit_rate": 0, "video_length": "197", "video_stream_index": -1, "video_timebase": {"den": 24, "num": 1}, "width": 720, "media_type": "audio", "id": "XKL7H7852A"}], "duration": 300, "scale": 16, "tick_pixels": 100, "playhead_position": 0, "profile": "HDV 720 24p", "layers": [{"id": "L0", "label": "", "number": 0, "y": 0, "lock": false}, {"id": "L1", "label": "", "number": 1, "y": 0, "lock": false}, {"id": "L2", "label": "", "number": 2, "y": 0, "lock": false}, {"id": "L3", "label": "", "number": 3, "y": 0, "lock": false}, {"id": "L4", "label": "", "number": 4, "y": 0, "lock": false}], "markers": [], "progress": [], "history": {"undo": [{"type": "update", "key": ["effects", {"id": "7B729KUFZW"}], "value": {"id": "7B729KUFZW", "layer": 4, "position": 9.12, "start": 0, "end": 171.36, "brightness": {"Points": [{"co": {"X": 1, "Y": 1}, "handle_left": {"X": 0.5, "Y": 1}, "handle_right": {"X": 0.5, "Y": 0}, "handle_type": 0, "interpolation": 0}, {"co": {"X": 4114, "Y": -1}, "handle_left": {"X": 0.5, "Y": 1}, "handle_right": {"X": 0.5, "Y": 0}, "handle_type": 0, "interpolation": 0}]}, "contrast": {"Points": [{"co": {"X": 1, "Y": 3}, "interpolation": 2}]}}, "partial": false, "old_values": {"id": "7B729KUFZW", "layer": 4, "title": "Transition", "type": "Mask", "position": 12.64, "start": 0, "end": 171.36, "brightness": {"Points": [{"co": {"X": 1.0, "Y": 1.0}, "handle_left": {"X": 0.5, "Y": 1.0}, "handle_right": {"X": 0.5, "Y": 0.0}, "handle_type": 0, "interpolation": 0}, {"co": {"X": 4114.0, "Y": -1.0}, "handle_left": {"X": 0.5, "Y": 1.0}, "handle_right": {"X": 0.5, "Y": 0.0}, "handle_type": 0, "interpolation": 0}]}, "contrast": {"Points": [{"co": {"X": 1.0, "Y": 3.0}, "interpolation": 2}]}, "reader": {"acodec": "", "audio_bit_rate": 0, "audio_stream_index": -1, "audio_timebase": {"den": 1, "num": 1}, "channel_layout": 4, "channels": 0, "display_ratio": {"den": 4, "num": 5}, "duration": 86400.0, "file_size": "1658880", "fps": {"den": 1, "num": 30}, "has_audio": false, "has_single_image": true, "has_video": true, "height": 576, "interlaced_frame": false, "path": "/usr/lib/python3.6/site-packages/openshot_qt/transitions/common/fade.svg", "pixel_format": -1, "pixel_ratio": {"den": 1, "num": 1}, "sample_rate": 0, "top_field_first": true, "type": "QtImageReader", "vcodec": "", "video_bit_rate": 0, "video_length": "2592000", "video_stream_index": -1, "video_timebase": {"den": 30, "num": 1}, "width": 720}, "replace_image": false}}, {"type": "update", "key": ["effects", {"id": "7B729KUFZW"}], "value": {"id": "7B729KUFZW", "layer": 4, "position": 12.64, "start": 0, "end": 171.36, "brightness": {"Points": [{"co": {"X": 1, "Y": 1}, "handle_left": {"X": 0.5, "Y": 1}, "handle_right": {"X": 0.5, "Y": 0}, "handle_type": 0, "interpolation": 0}, {"co": {"X": 4114, "Y": -1}, "handle_left": {"X": 0.5, "Y": 1}, "handle_right": {"X": 0.5, "Y": 0}, "handle_type": 0, "interpolation": 0}]}, "contrast": {"Points": [{"co": {"X": 1, "Y": 3}, "interpolation": 2}]}}, "partial": false, "old_values": null}, {"type": "update", "key": ["effects", {"id": "7B729KUFZW"}], "value": {"id": "7B729KUFZW", "layer": 4, "position": 12.64, "start": 0, "end": 171.36, "brightness": {"Points": [{"co": {"X": 1, "Y": 1}, "handle_left": {"X": 0.5, "Y": 1}, "handle_right": {"X": 0.5, "Y": 0}, "handle_type": 0, "interpolation": 0}, {"co": {"X": 4114, "Y": -1}, "handle_left": {"X": 0.5, "Y": 1}, "handle_right": {"X": 0.5, "Y": 0}, "handle_type": 0, "interpolation": 0}]}, "contrast": {"Points": [{"co": {"X": 1, "Y": 3}, "interpolation": 2}]}}, "partial": false, "old_values": null}, {"type": "update", "key": ["effects", {"id": "7B729KUFZW"}], "value": {"id": "7B729KUFZW", "layer": 4, "position": 12.64, "start": 0, "end": 171.36, "brightness": {"Points": [{"co": {"X": 1, "Y": 1}, "handle_left": {"X": 0.5, "Y": 1}, "handle_right": {"X": 0.5, "Y": 0}, "handle_type": 0, "interpolation": 0}, {"co": {"X": 4114, "Y": -1}, "handle_left": {"X": 0.5, "Y": 1}, "handle_right": {"X": 0.5, "Y": 0}, "handle_type": 0, "interpolation": 0}]}, "contrast": {"Points": [{"co": {"X": 1, "Y": 3}, "interpolation": 2}]}}, "partial": false, "old_values": null}, {"type": "update", "key": ["effects", {"id": "7B729KUFZW"}], "value": {"id": "7B729KUFZW", "layer": 4, "position": 31.84, "start": 0, "end": 171.36, "brightness": {"Points": [{"co": {"X": 1, "Y": 1}, "handle_left": {"X": 0.5, "Y": 1}, "handle_right": {"X": 0.5, "Y": 0}, "handle_type": 0, "interpolation": 0}, {"co": {"X": 4114, "Y": -1}, "handle_left": {"X": 0.5, "Y": 1}, "handle_right": {"X": 0.5, "Y": 0}, "handle_type": 0, "interpolation": 0}]}, "contrast": {"Points": [{"co": {"X": 1, "Y": 3}, "interpolation": 2}]}}, "partial": false, "old_values": {"id": "7B729KUFZW", "layer": 4, "title": "Transition", "type": "Mask", "position": 12.64, "start": 0, "end": 171.36, "brightness": {"Points": [{"co": {"X": 1, "Y": 1}, "handle_left": {"X": 0.5, "Y": 1}, "handle_right": {"X": 0.5, "Y": 0}, "handle_type": 0, "interpolation": 0}, {"co": {"X": 4114, "Y": -1}, "handle_left": {"X": 0.5, "Y": 1}, "handle_right": {"X": 0.5, "Y": 0}, "handle_type": 0, "interpolation": 0}]}, "contrast": {"Points": [{"co": {"X": 1, "Y": 3}, "interpolation": 2}]}, "reader": {"acodec": "", "audio_bit_rate": 0, "audio_stream_index": -1, "audio_timebase": {"den": 1, "num": 1}, "channel_layout": 4, "channels": 0, "display_ratio": {"den": 4, "num": 5}, "duration": 86400.0, "file_size": "1658880", "fps": {"den": 1, "num": 30}, "has_audio": false, "has_single_image": true, "has_video": true, "height": 576, "interlaced_frame": false, "path": "/usr/lib/python3.6/site-packages/openshot_qt/transitions/common/fade.svg", "pixel_format": -1, "pixel_ratio": {"den": 1, "num": 1}, "sample_rate": 0, "top_field_first": true, "type": "QtImageReader", "vcodec": "", "video_bit_rate": 0, "video_length": "2592000", "video_stream_index": -1, "video_timebase": {"den": 30, "num": 1}, "width": 720}, "replace_image": false}}, {"type": "update", "key": ["clips", {"id": "TXX1P4JP2F"}], "value": {"id": "TXX1P4JP2F", "layer": 3, "position": 16.48, "image": "/home/paulius/.openshot_qt/thumbnail/B4YPNMAA9Q.png", "start": 0, "end": 10}, "partial": false, "old_values": {"alpha": {"Points": [{"co": {"X": 1.0, "Y": 1.0}, "interpolation": 2}]}, "anchor": 0, "channel_filter": {"Points": [{"co": {"X": 1.0, "Y": -1.0}, "interpolation": 2}]}, "channel_mapping": {"Points": [{"co": {"X": 1.0, "Y": -1.0}, "interpolation": 2}]}, "crop_height": {"Points": [{"co": {"X": 1.0, "Y": -1.0}, "interpolation": 2}]}, "crop_width": {"Points": [{"co": {"X": 1.0, "Y": -1.0}, "interpolation": 2}]}, "crop_x": {"Points": [{"co": {"X": 1.0, "Y": 0.0}, "interpolation": 2}]}, "crop_y": {"Points": [{"co": {"X": 1.0, "Y": 0.0}, "interpolation": 2}]}, "display": 0, "duration": 86400.0, "effects": [], "end": 10, "gravity": 4, "has_audio": {"Points": [{"co": {"X": 1.0, "Y": -1.0}, "interpolation": 2}]}, "has_video": {"Points": [{"co": {"X": 1.0, "Y": -1.0}, "interpolation": 2}]}, "id": "TXX1P4JP2F", "layer": 4, "location_x": {"Points": [{"co": {"X": 1.0, "Y": 0.0}, "interpolation": 2}]}, "location_y": {"Points": [{"co": {"X": 1.0, "Y": 0.0}, "interpolation": 2}]}, "perspective_c1_x": {"Points": [{"co": {"X": 1.0, "Y": -1.0}, "interpolation": 2}]}, "perspective_c1_y": {"Points": [{"co": {"X": 1.0, "Y": -1.0}, "interpolation": 2}]}, "perspective_c2_x": {"Points": [{"co": {"X": 1.0, "Y": -1.0}, "interpolation": 2}]}, "perspective_c2_y": {"Points": [{"co": {"X": 1.0, "Y": -1.0}, "interpolation": 2}]}, "perspective_c3_x": {"Points": [{"co": {"X": 1.0, "Y": -1.0}, "interpolation": 2}]}, "perspective_c3_y": {"Points": [{"co": {"X": 1.0, "Y": -1.0}, "interpolation": 2}]}, "perspective_c4_x": {"Points": [{"co": {"X": 1.0, "Y": -1.0}, "interpolation": 2}]}, "perspective_c4_y": {"Points": [{"co": {"X": 1.0, "Y": -1.0}, "interpolation": 2}]}, "position": 12.64, "reader": {"acodec": "", "audio_bit_rate": 0, "audio_stream_index": -1, "audio_timebase": {"den": 1, "num": 1}, "channel_layout": 4, "channels": 0, "display_ratio": {"den": 18, "num": 167}, "duration": 86400.0, "file_size": "108216", "fps": {"den": 1, "num": 30}, "has_audio": false, "has_single_image": true, "has_video": true, "height": 54, "interlaced_frame": false, "path": "/home/paulius/maximum-common-subgraph/video/learning_code.png", "pixel_format": -1, "pixel_ratio": {"den": 1, "num": 1}, "sample_rate": 0, "top_field_first": true, "type": "QtImageReader", "vcodec": "", "video_bit_rate": 0, "video_length": "2592000", "video_stream_index": -1, "video_timebase": {"den": 30, "num": 1}, "width": 501}, "rotation": {"Points": [{"co": {"X": 1.0, "Y": 0.0}, "interpolation": 2}]}, "scale": 1, "scale_x": {"Points": [{"co": {"X": 1.0, "Y": 1.0}, "interpolation": 2}]}, "scale_y": {"Points": [{"co": {"X": 1.0, "Y": 1.0}, "interpolation": 2}]}, "shear_x": {"Points": [{"co": {"X": 1.0, "Y": 0.0}, "interpolation": 2}]}, "shear_y": {"Points": [{"co": {"X": 1.0, "Y": 0.0}, "interpolation": 2}]}, "start": 0, "time": {"Points": [{"co": {"X": 1.0, "Y": 1.0}, "interpolation": 2}]}, "volume": {"Points": [{"co": {"X": 1.0, "Y": 1.0}, "interpolation": 2}]}, "wave_color": {"alpha": {"Points": [{"co": {"X": 1.0, "Y": 255.0}, "handle_left": {"X": 0.5, "Y": 1.0}, "handle_right": {"X": 0.5, "Y": 0.0}, "handle_type": 0, "interpolation": 0}]}, "blue": {"Points": [{"co": {"X": 1.0, "Y": 255.0}, "handle_left": {"X": 0.5, "Y": 1.0}, "handle_right": {"X": 0.5, "Y": 0.0}, "handle_type": 0, "interpolation": 0}]}, "green": {"Points": [{"co": {"X": 1.0, "Y": 123.0}, "handle_left": {"X": 0.5, "Y": 1.0}, "handle_right": {"X": 0.5, "Y": 0.0}, "handle_type": 0, "interpolation": 0}]}, "red": {"Points": [{"co": {"X": 1.0, "Y": 0.0}, "handle_left": {"X": 0.5, "Y": 1.0}, "handle_right": {"X": 0.5, "Y": 0.0}, "handle_type": 0, "interpolation": 0}]}}, "waveform": false, "file_id": "B4YPNMAA9Q", "title": "learning_code.png", "image": "/home/paulius/.openshot_qt/thumbnail/B4YPNMAA9Q.png"}}, {"type": "update", "key": ["effects", {"id": "7B729KUFZW"}], "value": {"id": "7B729KUFZW", "layer": 2, "position": 0, "start": 0, "end": 171.36, "brightness": {"Points": [{"co": {"X": 1, "Y": 1}, "handle_left": {"X": 0.5, "Y": 1}, "handle_right": {"X": 0.5, "Y": 0}, "handle_type": 0, "interpolation": 0}, {"co": {"X": 4114, "Y": -1}, "handle_left": {"X": 0.5, "Y": 1}, "handle_right": {"X": 0.5, "Y": 0}, "handle_type": 0, "interpolation": 0}]}, "contrast": {"Points": [{"co": {"X": 1, "Y": 3}, "interpolation": 2}]}}, "partial": false, "old_values": {"id": "7B729KUFZW", "layer": 4, "title": "Transition", "type": "Mask", "position": 31.84, "start": 0, "end": 171.36, "brightness": {"Points": [{"co": {"X": 1, "Y": 1}, "handle_left": {"X": 0.5, "Y": 1}, "handle_right": {"X": 0.5, "Y": 0}, "handle_type": 0, "interpolation": 0}, {"co": {"X": 4114, "Y": -1}, "handle_left": {"X": 0.5, "Y": 1}, "handle_right": {"X": 0.5, "Y": 0}, "handle_type": 0, "interpolation": 0}]}, "contrast": {"Points": [{"co": {"X": 1, "Y": 3}, "interpolation": 2}]}, "reader": {"acodec": "", "audio_bit_rate": 0, "audio_stream_index": -1, "audio_timebase": {"den": 1, "num": 1}, "channel_layout": 4, "channels": 0, "display_ratio": {"den": 4, "num": 5}, "duration": 86400.0, "file_size": "1658880", "fps": {"den": 1, "num": 30}, "has_audio": false, "has_single_image": true, "has_video": true, "height": 576, "interlaced_frame": false, "path": "/usr/lib/python3.6/site-packages/openshot_qt/transitions/common/fade.svg", "pixel_format": -1, "pixel_ratio": {"den": 1, "num": 1}, "sample_rate": 0, "top_field_first": true, "type": "QtImageReader", "vcodec": "", "video_bit_rate": 0, "video_length": "2592000", "video_stream_index": -1, "video_timebase": {"den": 30, "num": 1}, "width": 720}, "replace_image": false}}, {"type": "update", "key": ["clips", {"id": "A98YK7598J"}], "value": {"id": "A98YK7598J", "layer": 4, "position": 0, "image": "/home/paulius/.openshot_qt/thumbnail/GTYO9OMU3J.png", "start": 0, "end": 184}, "partial": false, "old_values": {"alpha": {"Points": [{"co": {"X": 1.0, "Y": 1.0}, "interpolation": 2}]}, "anchor": 0, "channel_filter": {"Points": [{"co": {"X": 1.0, "Y": -1.0}, "interpolation": 2}]}, "channel_mapping": {"Points": [{"co": {"X": 1.0, "Y": -1.0}, "interpolation": 2}]}, "crop_height": {"Points": [{"co": {"X": 1.0, "Y": -1.0}, "interpolation": 2}]}, "crop_width": {"Points": [{"co": {"X": 1.0, "Y": -1.0}, "interpolation": 2}]}, "crop_x": {"Points": [{"co": {"X": 1.0, "Y": 0.0}, "interpolation": 2}]}, "crop_y": {"Points": [{"co": {"X": 1.0, "Y": 0.0}, "interpolation": 2}]}, "display": 0, "duration": 184.0, "effects": [], "end": 184, "gravity": 4, "has_audio": {"Points": [{"co": {"X": 1.0, "Y": -1.0}, "interpolation": 2}]}, "has_video": {"Points": [{"co": {"X": 1.0, "Y": -1.0}, "interpolation": 2}]}, "id": "A98YK7598J", "layer": 4, "location_x": {"Points": [{"co": {"X": 1.0, "Y": 0.0}, "interpolation": 2}]}, "location_y": {"Points": [{"co": {"X": 1.0, "Y": 0.0}, "interpolation": 2}]}, "perspective_c1_x": {"Points": [{"co": {"X": 1.0, "Y": -1.0}, "interpolation": 2}]}, "perspective_c1_y": {"Points": [{"co": {"X": 1.0, "Y": -1.0}, "interpolation": 2}]}, "perspective_c2_x": {"Points": [{"co": {"X": 1.0, "Y": -1.0}, "interpolation": 2}]}, "perspective_c2_y": {"Points": [{"co": {"X": 1.0, "Y": -1.0}, "interpolation": 2}]}, "perspective_c3_x": {"Points": [{"co": {"X": 1.0, "Y": -1.0}, "interpolation": 2}]}, "perspective_c3_y": {"Points": [{"co": {"X": 1.0, "Y": -1.0}, "interpolation": 2}]}, "perspective_c4_x": {"Points": [{"co": {"X": 1.0, "Y": -1.0}, "interpolation": 2}]}, "perspective_c4_y": {"Points": [{"co": {"X": 1.0, "Y": -1.0}, "interpolation": 2}]}, "position": 0, "reader": {"acodec": "", "audio_bit_rate": 0, "audio_stream_index": -1, "audio_timebase": {"den": 1, "num": 1}, "channel_layout": 4, "channels": 0, "display_ratio": {"den": 384, "num": 683}, "duration": 184.0, "file_size": "25255664", "fps": {"den": 1, "num": 24}, "has_audio": false, "has_single_image": false, "has_video": true, "height": 768, "interlaced_frame": false, "path": "/home/paulius/maximum-common-subgraph/video/action.mkv", "pixel_format": 0, "pixel_ratio": {"den": 1, "num": 1}, "sample_rate": 0, "top_field_first": true, "type": "FFmpegReader", "vcodec": "vp8", "video_bit_rate": 1093715, "video_length": "4416", "video_stream_index": 0, "video_timebase": {"den": 24, "num": 1}, "width": 1366}, "rotation": {"Points": [{"co": {"X": 1.0, "Y": 0.0}, "interpolation": 2}]}, "scale": 1, "scale_x": {"Points": [{"co": {"X": 1.0, "Y": 1.0}, "interpolation": 2}]}, "scale_y": {"Points": [{"co": {"X": 1.0, "Y": 1.0}, "interpolation": 2}]}, "shear_x": {"Points": [{"co": {"X": 1.0, "Y": 0.0}, "interpolation": 2}]}, "shear_y": {"Points": [{"co": {"X": 1.0, "Y": 0.0}, "interpolation": 2}]}, "start": 0, "time": {"Points": [{"co": {"X": 1.0, "Y": 1.0}, "interpolation": 2}]}, "volume": {"Points": [{"co": {"X": 1.0, "Y": 1.0}, "interpolation": 2}]}, "wave_color": {"alpha": {"Points": [{"co": {"X": 1.0, "Y": 255.0}, "handle_left": {"X": 0.5, "Y": 1.0}, "handle_right": {"X": 0.5, "Y": 0.0}, "handle_type": 0, "interpolation": 0}]}, "blue": {"Points": [{"co": {"X": 1.0, "Y": 255.0}, "handle_left": {"X": 0.5, "Y": 1.0}, "handle_right": {"X": 0.5, "Y": 0.0}, "handle_type": 0, "interpolation": 0}]}, "green": {"Points": [{"co": {"X": 1.0, "Y": 123.0}, "handle_left": {"X": 0.5, "Y": 1.0}, "handle_right": {"X": 0.5, "Y": 0.0}, "handle_type": 0, "interpolation": 0}]}, "red": {"Points": [{"co": {"X": 1.0, "Y": 0.0}, "handle_left": {"X": 0.5, "Y": 1.0}, "handle_right": {"X": 0.5, "Y": 0.0}, "handle_type": 0, "interpolation": 0}]}}, "waveform": false, "file_id": "GTYO9OMU3J", "title": "action.mkv", "image": "/home/paulius/.openshot_qt/thumbnail/GTYO9OMU3J.png"}}, {"type": "update", "key": ["clips", {"id": "A98YK7598J"}], "value": {"id": "A98YK7598J", "layer": 4, "position": 0, "image": "/home/paulius/.openshot_qt/thumbnail/GTYO9OMU3J.png", "start": 0, "end": 184}, "partial": false, "old_values": {"alpha": {"Points": [{"co": {"X": 1.0, "Y": 1.0}, "interpolation": 2}]}, "anchor": 0, "channel_filter": {"Points": [{"co": {"X": 1.0, "Y": -1.0}, "interpolation": 2}]}, "channel_mapping": {"Points": [{"co": {"X": 1.0, "Y": -1.0}, "interpolation": 2}]}, "crop_height": {"Points": [{"co": {"X": 1.0, "Y": -1.0}, "interpolation": 2}]}, "crop_width": {"Points": [{"co": {"X": 1.0, "Y": -1.0}, "interpolation": 2}]}, "crop_x": {"Points": [{"co": {"X": 1.0, "Y": 0.0}, "interpolation": 2}]}, "crop_y": {"Points": [{"co": {"X": 1.0, "Y": 0.0}, "interpolation": 2}]}, "display": 0, "duration": 184.0, "effects": [], "end": 184, "gravity": 4, "has_audio": {"Points": [{"co": {"X": 1.0, "Y": -1.0}, "interpolation": 2}]}, "has_video": {"Points": [{"co": {"X": 1.0, "Y": -1.0}, "interpolation": 2}]}, "id": "A98YK7598J", "layer": 4, "location_x": {"Points": [{"co": {"X": 1.0, "Y": 0.0}, "interpolation": 2}]}, "location_y": {"Points": [{"co": {"X": 1.0, "Y": 0.0}, "interpolation": 2}]}, "perspective_c1_x": {"Points": [{"co": {"X": 1.0, "Y": -1.0}, "interpolation": 2}]}, "perspective_c1_y": {"Points": [{"co": {"X": 1.0, "Y": -1.0}, "interpolation": 2}]}, "perspective_c2_x": {"Points": [{"co": {"X": 1.0, "Y": -1.0}, "interpolation": 2}]}, "perspective_c2_y": {"Points": [{"co": {"X": 1.0, "Y": -1.0}, "interpolation": 2}]}, "perspective_c3_x": {"Points": [{"co": {"X": 1.0, "Y": -1.0}, "interpolation": 2}]}, "perspective_c3_y": {"Points": [{"co": {"X": 1.0, "Y": -1.0}, "interpolation": 2}]}, "perspective_c4_x": {"Points": [{"co": {"X": 1.0, "Y": -1.0}, "interpolation": 2}]}, "perspective_c4_y": {"Points": [{"co": {"X": 1.0, "Y": -1.0}, "interpolation": 2}]}, "position": 0, "reader": {"acodec": "", "audio_bit_rate": 0, "audio_stream_index": -1, "audio_timebase": {"den": 1, "num": 1}, "channel_layout": 4, "channels": 0, "display_ratio": {"den": 384, "num": 683}, "duration": 184.0, "file_size": "25255664", "fps": {"den": 1, "num": 24}, "has_audio": false, "has_single_image": false, "has_video": true, "height": 768, "interlaced_frame": false, "path": "/home/paulius/maximum-common-subgraph/video/action.mkv", "pixel_format": 0, "pixel_ratio": {"den": 1, "num": 1}, "sample_rate": 0, "top_field_first": true, "type": "FFmpegReader", "vcodec": "vp8", "video_bit_rate": 1093715, "video_length": "4416", "video_stream_index": 0, "video_timebase": {"den": 24, "num": 1}, "width": 1366}, "rotation": {"Points": [{"co": {"X": 1.0, "Y": 0.0}, "interpolation": 2}]}, "scale": 1, "scale_x": {"Points": [{"co": {"X": 1.0, "Y": 1.0}, "interpolation": 2}]}, "scale_y": {"Points": [{"co": {"X": 1.0, "Y": 1.0}, "interpolation": 2}]}, "shear_x": {"Points": [{"co": {"X": 1.0, "Y": 0.0}, "interpolation": 2}]}, "shear_y": {"Points": [{"co": {"X": 1.0, "Y": 0.0}, "interpolation": 2}]}, "start": 0, "time": {"Points": [{"co": {"X": 1.0, "Y": 1.0}, "interpolation": 2}]}, "volume": {"Points": [{"co": {"X": 1.0, "Y": 1.0}, "interpolation": 2}]}, "wave_color": {"alpha": {"Points": [{"co": {"X": 1.0, "Y": 255.0}, "handle_left": {"X": 0.5, "Y": 1.0}, "handle_right": {"X": 0.5, "Y": 0.0}, "handle_type": 0, "interpolation": 0}]}, "blue": {"Points": [{"co": {"X": 1.0, "Y": 255.0}, "handle_left": {"X": 0.5, "Y": 1.0}, "handle_right": {"X": 0.5, "Y": 0.0}, "handle_type": 0, "interpolation": 0}]}, "green": {"Points": [{"co": {"X": 1.0, "Y": 123.0}, "handle_left": {"X": 0.5, "Y": 1.0}, "handle_right": {"X": 0.5, "Y": 0.0}, "handle_type": 0, "interpolation": 0}]}, "red": {"Points": [{"co": {"X": 1.0, "Y": 0.0}, "handle_left": {"X": 0.5, "Y": 1.0}, "handle_right": {"X": 0.5, "Y": 0.0}, "handle_type": 0, "interpolation": 0}]}}, "waveform": false, "file_id": "GTYO9OMU3J", "title": "action.mkv", "image": "/home/paulius/.openshot_qt/thumbnail/GTYO9OMU3J.png"}}, {"type": "delete", "key": ["effects", {"id": "7B729KUFZW"}], "value": null, "partial": false, "old_values": {"id": "7B729KUFZW", "layer": 2, "title": "Transition", "type": "Mask", "position": 0, "start": 0, "end": 171.36, "brightness": {"Points": [{"co": {"X": 1, "Y": 1}, "handle_left": {"X": 0.5, "Y": 1}, "handle_right": {"X": 0.5, "Y": 0}, "handle_type": 0, "interpolation": 0}, {"co": {"X": 4114, "Y": -1}, "handle_left": {"X": 0.5, "Y": 1}, "handle_right": {"X": 0.5, "Y": 0}, "handle_type": 0, "interpolation": 0}]}, "contrast": {"Points": [{"co": {"X": 1, "Y": 3}, "interpolation": 2}]}, "reader": {"acodec": "", "audio_bit_rate": 0, "audio_stream_index": -1, "audio_timebase": {"den": 1, "num": 1}, "channel_layout": 4, "channels": 0, "display_ratio": {"den": 4, "num": 5}, "duration": 86400.0, "file_size": "1658880", "fps": {"den": 1, "num": 30}, "has_audio": false, "has_single_image": true, "has_video": true, "height": 576, "interlaced_frame": false, "path": "/usr/lib/python3.6/site-packages/openshot_qt/transitions/common/fade.svg", "pixel_format": -1, "pixel_ratio": {"den": 1, "num": 1}, "sample_rate": 0, "top_field_first": true, "type": "QtImageReader", "vcodec": "", "video_bit_rate": 0, "video_length": "2592000", "video_stream_index": -1, "video_timebase": {"den": 30, "num": 1}, "width": 720}, "replace_image": false}}, {"type": "update", "key": ["clips", {"id": "TXX1P4JP2F"}], "value": {"id": "TXX1P4JP2F", "layer": 3, "position": 24.96, "image": "/home/paulius/.openshot_qt/thumbnail/B4YPNMAA9Q.png", "start": 0, "end": 10}, "partial": false, "old_values": {"alpha": {"Points": [{"co": {"X": 1.0, "Y": 1.0}, "interpolation": 2}]}, "anchor": 0, "channel_filter": {"Points": [{"co": {"X": 1.0, "Y": -1.0}, "interpolation": 2}]}, "channel_mapping": {"Points": [{"co": {"X": 1.0, "Y": -1.0}, "interpolation": 2}]}, "crop_height": {"Points": [{"co": {"X": 1.0, "Y": -1.0}, "interpolation": 2}]}, "crop_width": {"Points": [{"co": {"X": 1.0, "Y": -1.0}, "interpolation": 2}]}, "crop_x": {"Points": [{"co": {"X": 1.0, "Y": 0.0}, "interpolation": 2}]}, "crop_y": {"Points": [{"co": {"X": 1.0, "Y": 0.0}, "interpolation": 2}]}, "display": 0, "duration": 86400.0, "effects": [], "end": 10, "gravity": 4, "has_audio": {"Points": [{"co": {"X": 1.0, "Y": -1.0}, "interpolation": 2}]}, "has_video": {"Points": [{"co": {"X": 1.0, "Y": -1.0}, "interpolation": 2}]}, "id": "TXX1P4JP2F", "layer": 3, "location_x": {"Points": [{"co": {"X": 1.0, "Y": 0.0}, "interpolation": 2}]}, "location_y": {"Points": [{"co": {"X": 1.0, "Y": 0.0}, "interpolation": 2}]}, "perspective_c1_x": {"Points": [{"co": {"X": 1.0, "Y": -1.0}, "interpolation": 2}]}, "perspective_c1_y": {"Points": [{"co": {"X": 1.0, "Y": -1.0}, "interpolation": 2}]}, "perspective_c2_x": {"Points": [{"co": {"X": 1.0, "Y": -1.0}, "interpolation": 2}]}, "perspective_c2_y": {"Points": [{"co": {"X": 1.0, "Y": -1.0}, "interpolation": 2}]}, "perspective_c3_x": {"Points": [{"co": {"X": 1.0, "Y": -1.0}, "interpolation": 2}]}, "perspective_c3_y": {"Points": [{"co": {"X": 1.0, "Y": -1.0}, "interpolation": 2}]}, "perspective_c4_x": {"Points": [{"co": {"X": 1.0, "Y": -1.0}, "interpolation": 2}]}, "perspective_c4_y": {"Points": [{"co": {"X": 1.0, "Y": -1.0}, "interpolation": 2}]}, "position": 16.48, "reader": {"acodec": "", "audio_bit_rate": 0, "audio_stream_index": -1, "audio_timebase": {"den": 1, "num": 1}, "channel_layout": 4, "channels": 0, "display_ratio": {"den": 18, "num": 167}, "duration": 86400.0, "file_size": "108216", "fps": {"den": 1, "num": 30}, "has_audio": false, "has_single_image": true, "has_video": true, "height": 54, "interlaced_frame": false, "path": "/home/paulius/maximum-common-subgraph/video/learning_code.png", "pixel_format": -1, "pixel_ratio": {"den": 1, "num": 1}, "sample_rate": 0, "top_field_first": true, "type": "QtImageReader", "vcodec": "", "video_bit_rate": 0, "video_length": "2592000", "video_stream_index": -1, "video_timebase": {"den": 30, "num": 1}, "width": 501}, "rotation": {"Points": [{"co": {"X": 1.0, "Y": 0.0}, "interpolation": 2}]}, "scale": 1, "scale_x": {"Points": [{"co": {"X": 1.0, "Y": 1.0}, "interpolation": 2}]}, "scale_y": {"Points": [{"co": {"X": 1.0, "Y": 1.0}, "interpolation": 2}]}, "shear_x": {"Points": [{"co": {"X": 1.0, "Y": 0.0}, "interpolation": 2}]}, "shear_y": {"Points": [{"co": {"X": 1.0, "Y": 0.0}, "interpolation": 2}]}, "start": 0, "time": {"Points": [{"co": {"X": 1.0, "Y": 1.0}, "interpolation": 2}]}, "volume": {"Points": [{"co": {"X": 1.0, "Y": 1.0}, "interpolation": 2}]}, "wave_color": {"alpha": {"Points": [{"co": {"X": 1.0, "Y": 255.0}, "handle_left": {"X": 0.5, "Y": 1.0}, "handle_right": {"X": 0.5, "Y": 0.0}, "handle_type": 0, "interpolation": 0}]}, "blue": {"Points": [{"co": {"X": 1.0, "Y": 255.0}, "handle_left": {"X": 0.5, "Y": 1.0}, "handle_right": {"X": 0.5, "Y": 0.0}, "handle_type": 0, "interpolation": 0}]}, "green": {"Points": [{"co": {"X": 1.0, "Y": 123.0}, "handle_left": {"X": 0.5, "Y": 1.0}, "handle_right": {"X": 0.5, "Y": 0.0}, "handle_type": 0, "interpolation": 0}]}, "red": {"Points": [{"co": {"X": 1.0, "Y": 0.0}, "handle_left": {"X": 0.5, "Y": 1.0}, "handle_right": {"X": 0.5, "Y": 0.0}, "handle_type": 0, "interpolation": 0}]}}, "waveform": false, "file_id": "B4YPNMAA9Q", "title": "learning_code.png", "image": "/home/paulius/.openshot_qt/thumbnail/B4YPNMAA9Q.png"}}, {"type": "update", "key": ["clips", {"id": "TXX1P4JP2F"}], "value": {"id": "TXX1P4JP2F", "layer": 3, "position": 115.52000000000001, "image": "/home/paulius/.openshot_qt/thumbnail/B4YPNMAA9Q.png", "start": 0, "end": 10}, "partial": false, "old_values": {"alpha": {"Points": [{"co": {"X": 1.0, "Y": 1.0}, "interpolation": 2}]}, "anchor": 0, "channel_filter": {"Points": [{"co": {"X": 1.0, "Y": -1.0}, "interpolation": 2}]}, "channel_mapping": {"Points": [{"co": {"X": 1.0, "Y": -1.0}, "interpolation": 2}]}, "crop_height": {"Points": [{"co": {"X": 1.0, "Y": -1.0}, "interpolation": 2}]}, "crop_width": {"Points": [{"co": {"X": 1.0, "Y": -1.0}, "interpolation": 2}]}, "crop_x": {"Points": [{"co": {"X": 1.0, "Y": 0.0}, "interpolation": 2}]}, "crop_y": {"Points": [{"co": {"X": 1.0, "Y": 0.0}, "interpolation": 2}]}, "display": 0, "duration": 86400.0, "effects": [], "end": 10, "gravity": 4, "has_audio": {"Points": [{"co": {"X": 1.0, "Y": -1.0}, "interpolation": 2}]}, "has_video": {"Points": [{"co": {"X": 1.0, "Y": -1.0}, "interpolation": 2}]}, "id": "TXX1P4JP2F", "layer": 3, "location_x": {"Points": [{"co": {"X": 1.0, "Y": 0.0}, "interpolation": 2}]}, "location_y": {"Points": [{"co": {"X": 1.0, "Y": 0.0}, "interpolation": 2}]}, "perspective_c1_x": {"Points": [{"co": {"X": 1.0, "Y": -1.0}, "interpolation": 2}]}, "perspective_c1_y": {"Points": [{"co": {"X": 1.0, "Y": -1.0}, "interpolation": 2}]}, "perspective_c2_x": {"Points": [{"co": {"X": 1.0, "Y": -1.0}, "interpolation": 2}]}, "perspective_c2_y": {"Points": [{"co": {"X": 1.0, "Y": -1.0}, "interpolation": 2}]}, "perspective_c3_x": {"Points": [{"co": {"X": 1.0, "Y": -1.0}, "interpolation": 2}]}, "perspective_c3_y": {"Points": [{"co": {"X": 1.0, "Y": -1.0}, "interpolation": 2}]}, "perspective_c4_x": {"Points": [{"co": {"X": 1.0, "Y": -1.0}, "interpolation": 2}]}, "perspective_c4_y": {"Points": [{"co": {"X": 1.0, "Y": -1.0}, "interpolation": 2}]}, "position": 24.96, "reader": {"acodec": "", "audio_bit_rate": 0, "audio_stream_index": -1, "audio_timebase": {"den": 1, "num": 1}, "channel_layout": 4, "channels": 0, "display_ratio": {"den": 18, "num": 167}, "duration": 86400.0, "file_size": "108216", "fps": {"den": 1, "num": 30}, "has_audio": false, "has_single_image": true, "has_video": true, "height": 54, "interlaced_frame": false, "path": "/home/paulius/maximum-common-subgraph/video/learning_code.png", "pixel_format": -1, "pixel_ratio": {"den": 1, "num": 1}, "sample_rate": 0, "top_field_first": true, "type": "QtImageReader", "vcodec": "", "video_bit_rate": 0, "video_length": "2592000", "video_stream_index": -1, "video_timebase": {"den": 30, "num": 1}, "width": 501}, "rotation": {"Points": [{"co": {"X": 1.0, "Y": 0.0}, "interpolation": 2}]}, "scale": 1, "scale_x": {"Points": [{"co": {"X": 1.0, "Y": 1.0}, "interpolation": 2}]}, "scale_y": {"Points": [{"co": {"X": 1.0, "Y": 1.0}, "interpolation": 2}]}, "shear_x": {"Points": [{"co": {"X": 1.0, "Y": 0.0}, "interpolation": 2}]}, "shear_y": {"Points": [{"co": {"X": 1.0, "Y": 0.0}, "interpolation": 2}]}, "start": 0, "time": {"Points": [{"co": {"X": 1.0, "Y": 1.0}, "interpolation": 2}]}, "volume": {"Points": [{"co": {"X": 1.0, "Y": 1.0}, "interpolation": 2}]}, "wave_color": {"alpha": {"Points": [{"co": {"X": 1.0, "Y": 255.0}, "handle_left": {"X": 0.5, "Y": 1.0}, "handle_right": {"X": 0.5, "Y": 0.0}, "handle_type": 0, "interpolation": 0}]}, "blue": {"Points": [{"co": {"X": 1.0, "Y": 255.0}, "handle_left": {"X": 0.5, "Y": 1.0}, "handle_right": {"X": 0.5, "Y": 0.0}, "handle_type": 0, "interpolation": 0}]}, "green": {"Points": [{"co": {"X": 1.0, "Y": 123.0}, "handle_left": {"X": 0.5, "Y": 1.0}, "handle_right": {"X": 0.5, "Y": 0.0}, "handle_type": 0, "interpolation": 0}]}, "red": {"Points": [{"co": {"X": 1.0, "Y": 0.0}, "handle_left": {"X": 0.5, "Y": 1.0}, "handle_right": {"X": 0.5, "Y": 0.0}, "handle_type": 0, "interpolation": 0}]}}, "waveform": false, "file_id": "B4YPNMAA9Q", "title": "learning_code.png", "image": "/home/paulius/.openshot_qt/thumbnail/B4YPNMAA9Q.png"}}, {"type": "update", "key": ["clips", {"id": "TXX1P4JP2F"}], "value": {"id": "TXX1P4JP2F", "layer": 4, "position": 184, "image": "/home/paulius/.openshot_qt/thumbnail/B4YPNMAA9Q.png", "start": 0, "end": 10}, "partial": false, "old_values": {"alpha": {"Points": [{"co": {"X": 1.0, "Y": 1.0}, "interpolation": 2}]}, "anchor": 0, "channel_filter": {"Points": [{"co": {"X": 1.0, "Y": -1.0}, "interpolation": 2}]}, "channel_mapping": {"Points": [{"co": {"X": 1.0, "Y": -1.0}, "interpolation": 2}]}, "crop_height": {"Points": [{"co": {"X": 1.0, "Y": -1.0}, "interpolation": 2}]}, "crop_width": {"Points": [{"co": {"X": 1.0, "Y": -1.0}, "interpolation": 2}]}, "crop_x": {"Points": [{"co": {"X": 1.0, "Y": 0.0}, "interpolation": 2}]}, "crop_y": {"Points": [{"co": {"X": 1.0, "Y": 0.0}, "interpolation": 2}]}, "display": 0, "duration": 86400.0, "effects": [], "end": 10, "gravity": 4, "has_audio": {"Points": [{"co": {"X": 1.0, "Y": -1.0}, "interpolation": 2}]}, "has_video": {"Points": [{"co": {"X": 1.0, "Y": -1.0}, "interpolation": 2}]}, "id": "TXX1P4JP2F", "layer": 3, "location_x": {"Points": [{"co": {"X": 1.0, "Y": 0.0}, "interpolation": 2}]}, "location_y": {"Points": [{"co": {"X": 1.0, "Y": 0.0}, "interpolation": 2}]}, "perspective_c1_x": {"Points": [{"co": {"X": 1.0, "Y": -1.0}, "interpolation": 2}]}, "perspective_c1_y": {"Points": [{"co": {"X": 1.0, "Y": -1.0}, "interpolation": 2}]}, "perspective_c2_x": {"Points": [{"co": {"X": 1.0, "Y": -1.0}, "interpolation": 2}]}, "perspective_c2_y": {"Points": [{"co": {"X": 1.0, "Y": -1.0}, "interpolation": 2}]}, "perspective_c3_x": {"Points": [{"co": {"X": 1.0, "Y": -1.0}, "interpolation": 2}]}, "perspective_c3_y": {"Points": [{"co": {"X": 1.0, "Y": -1.0}, "interpolation": 2}]}, "perspective_c4_x": {"Points": [{"co": {"X": 1.0, "Y": -1.0}, "interpolation": 2}]}, "perspective_c4_y": {"Points": [{"co": {"X": 1.0, "Y": -1.0}, "interpolation": 2}]}, "position": 115.52000000000001, "reader": {"acodec": "", "audio_bit_rate": 0, "audio_stream_index": -1, "audio_timebase": {"den": 1, "num": 1}, "channel_layout": 4, "channels": 0, "display_ratio": {"den": 18, "num": 167}, "duration": 86400.0, "file_size": "108216", "fps": {"den": 1, "num": 30}, "has_audio": false, "has_single_image": true, "has_video": true, "height": 54, "interlaced_frame": false, "path": "/home/paulius/maximum-common-subgraph/video/learning_code.png", "pixel_format": -1, "pixel_ratio": {"den": 1, "num": 1}, "sample_rate": 0, "top_field_first": true, "type": "QtImageReader", "vcodec": "", "video_bit_rate": 0, "video_length": "2592000", "video_stream_index": -1, "video_timebase": {"den": 30, "num": 1}, "width": 501}, "rotation": {"Points": [{"co": {"X": 1.0, "Y": 0.0}, "interpolation": 2}]}, "scale": 1, "scale_x": {"Points": [{"co": {"X": 1.0, "Y": 1.0}, "interpolation": 2}]}, "scale_y": {"Points": [{"co": {"X": 1.0, "Y": 1.0}, "interpolation": 2}]}, "shear_x": {"Points": [{"co": {"X": 1.0, "Y": 0.0}, "interpolation": 2}]}, "shear_y": {"Points": [{"co": {"X": 1.0, "Y": 0.0}, "interpolation": 2}]}, "start": 0, "time": {"Points": [{"co": {"X": 1.0, "Y": 1.0}, "interpolation": 2}]}, "volume": {"Points": [{"co": {"X": 1.0, "Y": 1.0}, "interpolation": 2}]}, "wave_color": {"alpha": {"Points": [{"co": {"X": 1.0, "Y": 255.0}, "handle_left": {"X": 0.5, "Y": 1.0}, "handle_right": {"X": 0.5, "Y": 0.0}, "handle_type": 0, "interpolation": 0}]}, "blue": {"Points": [{"co": {"X": 1.0, "Y": 255.0}, "handle_left": {"X": 0.5, "Y": 1.0}, "handle_right": {"X": 0.5, "Y": 0.0}, "handle_type": 0, "interpolation": 0}]}, "green": {"Points": [{"co": {"X": 1.0, "Y": 123.0}, "handle_left": {"X": 0.5, "Y": 1.0}, "handle_right": {"X": 0.5, "Y": 0.0}, "handle_type": 0, "interpolation": 0}]}, "red": {"Points": [{"co": {"X": 1.0, "Y": 0.0}, "handle_left": {"X": 0.5, "Y": 1.0}, "handle_right": {"X": 0.5, "Y": 0.0}, "handle_type": 0, "interpolation": 0}]}}, "waveform": false, "file_id": "B4YPNMAA9Q", "title": "learning_code.png", "image": "/home/paulius/.openshot_qt/thumbnail/B4YPNMAA9Q.png"}}, {"type": "update", "key": ["scale"], "value": 17, "partial": false, "old_values": 16}, {"type": "update", "key": ["scale"], "value": 18, "partial": false, "old_values": 17}, {"type": "update", "key": ["scale"], "value": 17, "partial": false, "old_values": 18}, {"type": "update", "key": ["scale"], "value": 16, "partial": false, "old_values": 17}, {"type": "insert", "key": ["files"], "value": {"acodec": "vorbis", "audio_bit_rate": 160000, "audio_stream_index": 0, "audio_timebase": {"den": 44100, "num": 1}, "channel_layout": 3, "channels": 2, "display_ratio": {"den": 1, "num": 1}, "duration": 20.09832191467285, "file_size": "408922", "fps": {"den": 1, "num": 24}, "has_audio": true, "has_single_image": false, "has_video": false, "height": 480, "interlaced_frame": false, "path": "/home/paulius/maximum-common-subgraph/video/action-1.ogg", "pixel_format": -1, "pixel_ratio": {"den": 1, "num": 1}, "sample_rate": 44100, "top_field_first": true, "type": "FFmpegReader", "vcodec": "", "video_bit_rate": 0, "video_length": "482", "video_stream_index": -1, "video_timebase": {"den": 24, "num": 1}, "width": 720, "media_type": "audio", "id": "YEYWBMCYYR"}, "partial": false, "old_values": [{"acodec": "", "audio_bit_rate": 0, "audio_stream_index": -1, "audio_timebase": {"den": 1, "num": 1}, "channel_layout": 4, "channels": 0, "display_ratio": {"den": 384, "num": 683}, "duration": 184.0, "file_size": "25255664", "fps": {"den": 1, "num": 24}, "has_audio": false, "has_single_image": false, "has_video": true, "height": 768, "interlaced_frame": false, "path": "/home/paulius/maximum-common-subgraph/video/action.mkv", "pixel_format": 0, "pixel_ratio": {"den": 1, "num": 1}, "sample_rate": 0, "top_field_first": true, "type": "FFmpegReader", "vcodec": "vp8", "video_bit_rate": 1093715, "video_length": "4416", "video_stream_index": 0, "video_timebase": {"den": 24, "num": 1}, "width": 1366, "media_type": "video", "id": "GTYO9OMU3J"}, {"acodec": "", "audio_bit_rate": 0, "audio_stream_index": -1, "audio_timebase": {"den": 1, "num": 1}, "channel_layout": 4, "channels": 0, "display_ratio": {"den": 18, "num": 167}, "duration": 86400.0, "file_size": "108216", "fps": {"den": 1, "num": 30}, "has_audio": false, "has_single_image": true, "has_video": true, "height": 54, "interlaced_frame": false, "path": "/home/paulius/maximum-common-subgraph/video/learning_code.png", "pixel_format": -1, "pixel_ratio": {"den": 1, "num": 1}, "sample_rate": 0, "top_field_first": true, "type": "QtImageReader", "vcodec": "", "video_bit_rate": 0, "video_length": "2592000", "video_stream_index": -1, "video_timebase": {"den": 30, "num": 1}, "width": 501, "media_type": "image", "id": "B4YPNMAA9Q"}]}, {"type": "insert", "key": ["files"], "value": {"acodec": "vorbis", "audio_bit_rate": 160000, "audio_stream_index": 0, "audio_timebase": {"den": 44100, "num": 1}, "channel_layout": 3, "channels": 2, "display_ratio": {"den": 1, "num": 1}, "duration": 23.4013614654541, "file_size": "478345", "fps": {"den": 1, "num": 24}, "has_audio": true, "has_single_image": false, "has_video": false, "height": 480, "interlaced_frame": false, "path": "/home/paulius/maximum-common-subgraph/video/action-2.ogg", "pixel_format": -1, "pixel_ratio": {"den": 1, "num": 1}, "sample_rate": 44100, "top_field_first": true, "type": "FFmpegReader", "vcodec": "", "video_bit_rate": 0, "video_length": "561", "video_stream_index": -1, "video_timebase": {"den": 24, "num": 1}, "width": 720, "media_type": "audio", "id": "Y1330S0ITT"}, "partial": false, "old_values": [{"acodec": "", "audio_bit_rate": 0, "audio_stream_index": -1, "audio_timebase": {"den": 1, "num": 1}, "channel_layout": 4, "channels": 0, "display_ratio": {"den": 384, "num": 683}, "duration": 184.0, "file_size": "25255664", "fps": {"den": 1, "num": 24}, "has_audio": false, "has_single_image": false, "has_video": true, "height": 768, "interlaced_frame": false, "path": "/home/paulius/maximum-common-subgraph/video/action.mkv", "pixel_format": 0, "pixel_ratio": {"den": 1, "num": 1}, "sample_rate": 0, "top_field_first": true, "type": "FFmpegReader", "vcodec": "vp8", "video_bit_rate": 1093715, "video_length": "4416", "video_stream_index": 0, "video_timebase": {"den": 24, "num": 1}, "width": 1366, "media_type": "video", "id": "GTYO9OMU3J"}, {"acodec": "", "audio_bit_rate": 0, "audio_stream_index": -1, "audio_timebase": {"den": 1, "num": 1}, "channel_layout": 4, "channels": 0, "display_ratio": {"den": 18, "num": 167}, "duration": 86400.0, "file_size": "108216", "fps": {"den": 1, "num": 30}, "has_audio": false, "has_single_image": true, "has_video": true, "height": 54, "interlaced_frame": false, "path": "/home/paulius/maximum-common-subgraph/video/learning_code.png", "pixel_format": -1, "pixel_ratio": {"den": 1, "num": 1}, "sample_rate": 0, "top_field_first": true, "type": "QtImageReader", "vcodec": "", "video_bit_rate": 0, "video_length": "2592000", "video_stream_index": -1, "video_timebase": {"den": 30, "num": 1}, "width": 501, "media_type": "image", "id": "B4YPNMAA9Q"}, {"acodec": "vorbis", "audio_bit_rate": 160000, "audio_stream_index": 0, "audio_timebase": {"den": 44100, "num": 1}, "channel_layout": 3, "channels": 2, "display_ratio": {"den": 1, "num": 1}, "duration": 20.09832191467285, "file_size": "408922", "fps": {"den": 1, "num": 24}, "has_audio": true, "has_single_image": false, "has_video": false, "height": 480, "interlaced_frame": false, "path": "/home/paulius/maximum-common-subgraph/video/action-1.ogg", "pixel_format": -1, "pixel_ratio": {"den": 1, "num": 1}, "sample_rate": 44100, "top_field_first": true, "type": "FFmpegReader", "vcodec": "", "video_bit_rate": 0, "video_length": "482", "video_stream_index": -1, "video_timebase": {"den": 24, "num": 1}, "width": 720, "media_type": "audio", "id": "YEYWBMCYYR"}]}, {"type": "insert", "key": ["files"], "value": {"acodec": "vorbis", "audio_bit_rate": 160000, "audio_stream_index": 0, "audio_timebase": {"den": 44100, "num": 1}, "channel_layout": 3, "channels": 2, "display_ratio": {"den": 1, "num": 1}, "duration": 8.212607383728027, "file_size": "171540", "fps": {"den": 1, "num": 24}, "has_audio": true, "has_single_image": false, "has_video": false, "height": 480, "interlaced_frame": false, "path": "/home/paulius/maximum-common-subgraph/video/action-3.ogg", "pixel_format": -1, "pixel_ratio": {"den": 1, "num": 1}, "sample_rate": 44100, "top_field_first": true, "type": "FFmpegReader", "vcodec": "", "video_bit_rate": 0, "video_length": "197", "video_stream_index": -1, "video_timebase": {"den": 24, "num": 1}, "width": 720, "media_type": "audio", "id": "XKL7H7852A"}, "partial": false, "old_values": [{"acodec": "", "audio_bit_rate": 0, "audio_stream_index": -1, "audio_timebase": {"den": 1, "num": 1}, "channel_layout": 4, "channels": 0, "display_ratio": {"den": 384, "num": 683}, "duration": 184.0, "file_size": "25255664", "fps": {"den": 1, "num": 24}, "has_audio": false, "has_single_image": false, "has_video": true, "height": 768, "interlaced_frame": false, "path": "/home/paulius/maximum-common-subgraph/video/action.mkv", "pixel_format": 0, "pixel_ratio": {"den": 1, "num": 1}, "sample_rate": 0, "top_field_first": true, "type": "FFmpegReader", "vcodec": "vp8", "video_bit_rate": 1093715, "video_length": "4416", "video_stream_index": 0, "video_timebase": {"den": 24, "num": 1}, "width": 1366, "media_type": "video", "id": "GTYO9OMU3J"}, {"acodec": "", "audio_bit_rate": 0, "audio_stream_index": -1, "audio_timebase": {"den": 1, "num": 1}, "channel_layout": 4, "channels": 0, "display_ratio": {"den": 18, "num": 167}, "duration": 86400.0, "file_size": "108216", "fps": {"den": 1, "num": 30}, "has_audio": false, "has_single_image": true, "has_video": true, "height": 54, "interlaced_frame": false, "path": "/home/paulius/maximum-common-subgraph/video/learning_code.png", "pixel_format": -1, "pixel_ratio": {"den": 1, "num": 1}, "sample_rate": 0, "top_field_first": true, "type": "QtImageReader", "vcodec": "", "video_bit_rate": 0, "video_length": "2592000", "video_stream_index": -1, "video_timebase": {"den": 30, "num": 1}, "width": 501, "media_type": "image", "id": "B4YPNMAA9Q"}, {"acodec": "vorbis", "audio_bit_rate": 160000, "audio_stream_index": 0, "audio_timebase": {"den": 44100, "num": 1}, "channel_layout": 3, "channels": 2, "display_ratio": {"den": 1, "num": 1}, "duration": 20.09832191467285, "file_size": "408922", "fps": {"den": 1, "num": 24}, "has_audio": true, "has_single_image": false, "has_video": false, "height": 480, "interlaced_frame": false, "path": "/home/paulius/maximum-common-subgraph/video/action-1.ogg", "pixel_format": -1, "pixel_ratio": {"den": 1, "num": 1}, "sample_rate": 44100, "top_field_first": true, "type": "FFmpegReader", "vcodec": "", "video_bit_rate": 0, "video_length": "482", "video_stream_index": -1, "video_timebase": {"den": 24, "num": 1}, "width": 720, "media_type": "audio", "id": "YEYWBMCYYR"}, {"acodec": "vorbis", "audio_bit_rate": 160000, "audio_stream_index": 0, "audio_timebase": {"den": 44100, "num": 1}, "channel_layout": 3, "channels": 2, "display_ratio": {"den": 1, "num": 1}, "duration": 23.4013614654541, "file_size": "478345", "fps": {"den": 1, "num": 24}, "has_audio": true, "has_single_image": false, "has_video": false, "height": 480, "interlaced_frame": false, "path": "/home/paulius/maximum-common-subgraph/video/action-2.ogg", "pixel_format": -1, "pixel_ratio": {"den": 1, "num": 1}, "sample_rate": 44100, "top_field_first": true, "type": "FFmpegReader", "vcodec": "", "video_bit_rate": 0, "video_length": "561", "video_stream_index": -1, "video_timebase": {"den": 24, "num": 1}, "width": 720, "media_type": "audio", "id": "Y1330S0ITT"}]}], "redo": []}, "version": {"openshot-qt": "2.4.1", "libopenshot": "0.1.9"}}